<mxfile host="app.diagrams.net" agent="Mozilla/5.0 (Windows NT 10.0; Win64; x64) AppleWebKit/537.36 (KHTML, like Gecko) Chrome/133.0.0.0 Safari/537.36" version="26.0.16">
  <diagram id="C5RBs43oDa-KdzZeNtuy" name="Page-1">
    <mxGraphModel dx="1050" dy="1822" grid="1" gridSize="10" guides="1" tooltips="1" connect="1" arrows="1" fold="1" page="1" pageScale="1" pageWidth="827" pageHeight="1169" math="0" shadow="0">
      <root>
        <mxCell id="WIyWlLk6GJQsqaUBKTNV-0" />
        <mxCell id="WIyWlLk6GJQsqaUBKTNV-1" parent="WIyWlLk6GJQsqaUBKTNV-0" />
        <mxCell id="VR3VbczRAdssZVZP4NNd-7" value="" style="edgeStyle=orthogonalEdgeStyle;rounded=0;orthogonalLoop=1;jettySize=auto;html=1;" parent="WIyWlLk6GJQsqaUBKTNV-1" source="WIyWlLk6GJQsqaUBKTNV-3" target="VR3VbczRAdssZVZP4NNd-2" edge="1">
          <mxGeometry relative="1" as="geometry" />
        </mxCell>
        <mxCell id="WIyWlLk6GJQsqaUBKTNV-3" value="Start" style="rounded=1;whiteSpace=wrap;html=1;fontSize=12;glass=0;strokeWidth=1;shadow=0;" parent="WIyWlLk6GJQsqaUBKTNV-1" vertex="1">
          <mxGeometry x="160" y="30" width="120" height="40" as="geometry" />
        </mxCell>
        <mxCell id="VR3VbczRAdssZVZP4NNd-9" value="" style="edgeStyle=orthogonalEdgeStyle;rounded=0;orthogonalLoop=1;jettySize=auto;html=1;" parent="WIyWlLk6GJQsqaUBKTNV-1" source="WIyWlLk6GJQsqaUBKTNV-6" target="VR3VbczRAdssZVZP4NNd-3" edge="1">
          <mxGeometry relative="1" as="geometry" />
        </mxCell>
        <mxCell id="VR3VbczRAdssZVZP4NNd-13" value="Yes" style="edgeLabel;html=1;align=center;verticalAlign=middle;resizable=0;points=[];" parent="VR3VbczRAdssZVZP4NNd-9" vertex="1" connectable="0">
          <mxGeometry x="-0.1962" relative="1" as="geometry">
            <mxPoint as="offset" />
          </mxGeometry>
        </mxCell>
        <mxCell id="VR3VbczRAdssZVZP4NNd-10" value="" style="edgeStyle=orthogonalEdgeStyle;rounded=0;orthogonalLoop=1;jettySize=auto;html=1;" parent="WIyWlLk6GJQsqaUBKTNV-1" source="WIyWlLk6GJQsqaUBKTNV-6" target="VR3VbczRAdssZVZP4NNd-5" edge="1">
          <mxGeometry relative="1" as="geometry" />
        </mxCell>
        <mxCell id="VR3VbczRAdssZVZP4NNd-14" value="No" style="edgeLabel;html=1;align=center;verticalAlign=middle;resizable=0;points=[];" parent="VR3VbczRAdssZVZP4NNd-10" vertex="1" connectable="0">
          <mxGeometry x="-0.4095" y="1" relative="1" as="geometry">
            <mxPoint as="offset" />
          </mxGeometry>
        </mxCell>
        <mxCell id="WIyWlLk6GJQsqaUBKTNV-6" value="I&lt;span style=&quot;background-color: transparent; color: light-dark(rgb(0, 0, 0), rgb(255, 255, 255));&quot;&gt;s connection fail?&lt;/span&gt;" style="rhombus;whiteSpace=wrap;html=1;shadow=0;fontFamily=Helvetica;fontSize=12;align=center;strokeWidth=1;spacing=6;spacingTop=-4;" parent="WIyWlLk6GJQsqaUBKTNV-1" vertex="1">
          <mxGeometry x="170" y="210" width="100" height="80" as="geometry" />
        </mxCell>
        <mxCell id="VR3VbczRAdssZVZP4NNd-8" value="" style="edgeStyle=orthogonalEdgeStyle;rounded=0;orthogonalLoop=1;jettySize=auto;html=1;" parent="WIyWlLk6GJQsqaUBKTNV-1" source="VR3VbczRAdssZVZP4NNd-2" target="WIyWlLk6GJQsqaUBKTNV-6" edge="1">
          <mxGeometry relative="1" as="geometry" />
        </mxCell>
        <mxCell id="VR3VbczRAdssZVZP4NNd-2" value="Dial to Server (localhost:8080)" style="rounded=0;whiteSpace=wrap;html=1;" parent="WIyWlLk6GJQsqaUBKTNV-1" vertex="1">
          <mxGeometry x="160" y="90" width="120" height="60" as="geometry" />
        </mxCell>
        <mxCell id="VR3VbczRAdssZVZP4NNd-3" value="Error and exit" style="rounded=0;whiteSpace=wrap;html=1;" parent="WIyWlLk6GJQsqaUBKTNV-1" vertex="1">
          <mxGeometry x="320" y="220" width="120" height="60" as="geometry" />
        </mxCell>
        <mxCell id="VR3VbczRAdssZVZP4NNd-11" value="" style="edgeStyle=orthogonalEdgeStyle;rounded=0;orthogonalLoop=1;jettySize=auto;html=1;" parent="WIyWlLk6GJQsqaUBKTNV-1" source="VR3VbczRAdssZVZP4NNd-5" target="VR3VbczRAdssZVZP4NNd-6" edge="1">
          <mxGeometry relative="1" as="geometry" />
        </mxCell>
        <mxCell id="VR3VbczRAdssZVZP4NNd-5" value="Continuously read messages from the server and print them." style="rounded=0;whiteSpace=wrap;html=1;" parent="WIyWlLk6GJQsqaUBKTNV-1" vertex="1">
          <mxGeometry x="160" y="330" width="120" height="60" as="geometry" />
        </mxCell>
        <mxCell id="99H91_uwepMWZIBe1bUp-13" value="" style="edgeStyle=orthogonalEdgeStyle;rounded=0;orthogonalLoop=1;jettySize=auto;html=1;" edge="1" parent="WIyWlLk6GJQsqaUBKTNV-1" source="VR3VbczRAdssZVZP4NNd-6" target="99H91_uwepMWZIBe1bUp-12">
          <mxGeometry relative="1" as="geometry" />
        </mxCell>
        <mxCell id="99H91_uwepMWZIBe1bUp-16" value="Yes" style="edgeLabel;html=1;align=center;verticalAlign=middle;resizable=0;points=[];" vertex="1" connectable="0" parent="99H91_uwepMWZIBe1bUp-13">
          <mxGeometry x="-0.2" y="-2" relative="1" as="geometry">
            <mxPoint as="offset" />
          </mxGeometry>
        </mxCell>
        <mxCell id="99H91_uwepMWZIBe1bUp-15" value="" style="edgeStyle=orthogonalEdgeStyle;rounded=0;orthogonalLoop=1;jettySize=auto;html=1;" edge="1" parent="WIyWlLk6GJQsqaUBKTNV-1" source="VR3VbczRAdssZVZP4NNd-6" target="99H91_uwepMWZIBe1bUp-14">
          <mxGeometry relative="1" as="geometry" />
        </mxCell>
        <mxCell id="99H91_uwepMWZIBe1bUp-17" value="No" style="edgeLabel;html=1;align=center;verticalAlign=middle;resizable=0;points=[];" vertex="1" connectable="0" parent="99H91_uwepMWZIBe1bUp-15">
          <mxGeometry x="-0.36" y="1" relative="1" as="geometry">
            <mxPoint as="offset" />
          </mxGeometry>
        </mxCell>
        <mxCell id="VR3VbczRAdssZVZP4NNd-6" value="Is server disconnect" style="rhombus;whiteSpace=wrap;html=1;" parent="WIyWlLk6GJQsqaUBKTNV-1" vertex="1">
          <mxGeometry x="180" y="430" width="80" height="80" as="geometry" />
        </mxCell>
        <mxCell id="VR3VbczRAdssZVZP4NNd-12" value="&lt;font style=&quot;font-size: 22px;&quot;&gt;client.go&lt;/font&gt;" style="text;html=1;align=center;verticalAlign=middle;resizable=0;points=[];autosize=1;strokeColor=none;fillColor=none;" parent="WIyWlLk6GJQsqaUBKTNV-1" vertex="1">
          <mxGeometry x="165" y="-10" width="110" height="40" as="geometry" />
        </mxCell>
        <mxCell id="99H91_uwepMWZIBe1bUp-0" value="&lt;font style=&quot;font-size: 21px;&quot;&gt;Server.go&lt;/font&gt;&lt;div&gt;&lt;br&gt;&lt;/div&gt;" style="text;html=1;align=center;verticalAlign=middle;resizable=0;points=[];autosize=1;strokeColor=none;fillColor=none;" vertex="1" parent="WIyWlLk6GJQsqaUBKTNV-1">
          <mxGeometry x="615" y="-2" width="110" height="50" as="geometry" />
        </mxCell>
        <mxCell id="99H91_uwepMWZIBe1bUp-6" value="" style="edgeStyle=orthogonalEdgeStyle;rounded=0;orthogonalLoop=1;jettySize=auto;html=1;" edge="1" parent="WIyWlLk6GJQsqaUBKTNV-1" source="99H91_uwepMWZIBe1bUp-1" target="99H91_uwepMWZIBe1bUp-3">
          <mxGeometry relative="1" as="geometry" />
        </mxCell>
        <mxCell id="99H91_uwepMWZIBe1bUp-1" value="Start" style="rounded=1;whiteSpace=wrap;html=1;" vertex="1" parent="WIyWlLk6GJQsqaUBKTNV-1">
          <mxGeometry x="610" y="40" width="120" height="50" as="geometry" />
        </mxCell>
        <mxCell id="99H91_uwepMWZIBe1bUp-5" value="" style="edgeStyle=orthogonalEdgeStyle;rounded=0;orthogonalLoop=1;jettySize=auto;html=1;" edge="1" parent="WIyWlLk6GJQsqaUBKTNV-1" source="99H91_uwepMWZIBe1bUp-3" target="99H91_uwepMWZIBe1bUp-4">
          <mxGeometry relative="1" as="geometry" />
        </mxCell>
        <mxCell id="99H91_uwepMWZIBe1bUp-3" value="Start TCP Server on Port 8080" style="rounded=0;whiteSpace=wrap;html=1;" vertex="1" parent="WIyWlLk6GJQsqaUBKTNV-1">
          <mxGeometry x="610" y="130" width="120" height="60" as="geometry" />
        </mxCell>
        <mxCell id="99H91_uwepMWZIBe1bUp-8" value="" style="edgeStyle=orthogonalEdgeStyle;rounded=0;orthogonalLoop=1;jettySize=auto;html=1;" edge="1" parent="WIyWlLk6GJQsqaUBKTNV-1" source="99H91_uwepMWZIBe1bUp-4" target="99H91_uwepMWZIBe1bUp-7">
          <mxGeometry relative="1" as="geometry" />
        </mxCell>
        <mxCell id="99H91_uwepMWZIBe1bUp-9" value="yes" style="edgeLabel;html=1;align=center;verticalAlign=middle;resizable=0;points=[];" vertex="1" connectable="0" parent="99H91_uwepMWZIBe1bUp-8">
          <mxGeometry x="-0.76" y="-1" relative="1" as="geometry">
            <mxPoint as="offset" />
          </mxGeometry>
        </mxCell>
        <mxCell id="99H91_uwepMWZIBe1bUp-11" value="" style="edgeStyle=orthogonalEdgeStyle;rounded=0;orthogonalLoop=1;jettySize=auto;html=1;entryX=0.5;entryY=0;entryDx=0;entryDy=0;" edge="1" parent="WIyWlLk6GJQsqaUBKTNV-1" source="99H91_uwepMWZIBe1bUp-4" target="99H91_uwepMWZIBe1bUp-21">
          <mxGeometry relative="1" as="geometry">
            <mxPoint x="685" y="380" as="targetPoint" />
          </mxGeometry>
        </mxCell>
        <mxCell id="99H91_uwepMWZIBe1bUp-20" value="No" style="edgeLabel;html=1;align=center;verticalAlign=middle;resizable=0;points=[];" vertex="1" connectable="0" parent="99H91_uwepMWZIBe1bUp-11">
          <mxGeometry x="-0.26" relative="1" as="geometry">
            <mxPoint as="offset" />
          </mxGeometry>
        </mxCell>
        <mxCell id="99H91_uwepMWZIBe1bUp-4" value="Is server fail" style="rhombus;whiteSpace=wrap;html=1;" vertex="1" parent="WIyWlLk6GJQsqaUBKTNV-1">
          <mxGeometry x="630" y="250" width="80" height="80" as="geometry" />
        </mxCell>
        <mxCell id="99H91_uwepMWZIBe1bUp-7" value="Error and exit" style="rounded=0;whiteSpace=wrap;html=1;" vertex="1" parent="WIyWlLk6GJQsqaUBKTNV-1">
          <mxGeometry x="740" y="260" width="120" height="60" as="geometry" />
        </mxCell>
        <mxCell id="99H91_uwepMWZIBe1bUp-12" value="Error and exit" style="rounded=0;whiteSpace=wrap;html=1;" vertex="1" parent="WIyWlLk6GJQsqaUBKTNV-1">
          <mxGeometry x="310" y="440" width="120" height="60" as="geometry" />
        </mxCell>
        <mxCell id="99H91_uwepMWZIBe1bUp-19" value="" style="edgeStyle=orthogonalEdgeStyle;rounded=0;orthogonalLoop=1;jettySize=auto;html=1;" edge="1" parent="WIyWlLk6GJQsqaUBKTNV-1" source="99H91_uwepMWZIBe1bUp-14" target="99H91_uwepMWZIBe1bUp-18">
          <mxGeometry relative="1" as="geometry" />
        </mxCell>
        <mxCell id="99H91_uwepMWZIBe1bUp-14" value="For each user input, write the message to the server." style="rounded=0;whiteSpace=wrap;html=1;" vertex="1" parent="WIyWlLk6GJQsqaUBKTNV-1">
          <mxGeometry x="160" y="550" width="120" height="60" as="geometry" />
        </mxCell>
        <mxCell id="99H91_uwepMWZIBe1bUp-18" value="End" style="rounded=1;whiteSpace=wrap;html=1;" vertex="1" parent="WIyWlLk6GJQsqaUBKTNV-1">
          <mxGeometry x="160" y="670" width="120" height="60" as="geometry" />
        </mxCell>
        <mxCell id="99H91_uwepMWZIBe1bUp-23" value="" style="edgeStyle=orthogonalEdgeStyle;rounded=0;orthogonalLoop=1;jettySize=auto;html=1;" edge="1" parent="WIyWlLk6GJQsqaUBKTNV-1" source="99H91_uwepMWZIBe1bUp-21" target="99H91_uwepMWZIBe1bUp-22">
          <mxGeometry relative="1" as="geometry" />
        </mxCell>
        <mxCell id="99H91_uwepMWZIBe1bUp-21" value="Add the client to the clients map." style="rounded=0;whiteSpace=wrap;html=1;" vertex="1" parent="WIyWlLk6GJQsqaUBKTNV-1">
          <mxGeometry x="615" y="390" width="120" height="60" as="geometry" />
        </mxCell>
        <mxCell id="99H91_uwepMWZIBe1bUp-26" value="" style="edgeStyle=orthogonalEdgeStyle;rounded=0;orthogonalLoop=1;jettySize=auto;html=1;" edge="1" parent="WIyWlLk6GJQsqaUBKTNV-1" source="99H91_uwepMWZIBe1bUp-22" target="99H91_uwepMWZIBe1bUp-25">
          <mxGeometry relative="1" as="geometry" />
        </mxCell>
        <mxCell id="99H91_uwepMWZIBe1bUp-22" value="Start a new goroutine for handling the client." style="rounded=0;whiteSpace=wrap;html=1;" vertex="1" parent="WIyWlLk6GJQsqaUBKTNV-1">
          <mxGeometry x="615" y="490" width="120" height="60" as="geometry" />
        </mxCell>
        <mxCell id="99H91_uwepMWZIBe1bUp-28" value="" style="edgeStyle=orthogonalEdgeStyle;rounded=0;orthogonalLoop=1;jettySize=auto;html=1;" edge="1" parent="WIyWlLk6GJQsqaUBKTNV-1" source="99H91_uwepMWZIBe1bUp-25" target="99H91_uwepMWZIBe1bUp-27">
          <mxGeometry relative="1" as="geometry" />
        </mxCell>
        <mxCell id="99H91_uwepMWZIBe1bUp-25" value="Read messages from the connected client." style="rounded=0;whiteSpace=wrap;html=1;" vertex="1" parent="WIyWlLk6GJQsqaUBKTNV-1">
          <mxGeometry x="615" y="585" width="120" height="60" as="geometry" />
        </mxCell>
        <mxCell id="99H91_uwepMWZIBe1bUp-32" value="" style="edgeStyle=orthogonalEdgeStyle;rounded=0;orthogonalLoop=1;jettySize=auto;html=1;" edge="1" parent="WIyWlLk6GJQsqaUBKTNV-1" source="99H91_uwepMWZIBe1bUp-27" target="99H91_uwepMWZIBe1bUp-29">
          <mxGeometry relative="1" as="geometry" />
        </mxCell>
        <mxCell id="99H91_uwepMWZIBe1bUp-33" value="No" style="edgeLabel;html=1;align=center;verticalAlign=middle;resizable=0;points=[];" vertex="1" connectable="0" parent="99H91_uwepMWZIBe1bUp-32">
          <mxGeometry x="-0.1446" y="-1" relative="1" as="geometry">
            <mxPoint as="offset" />
          </mxGeometry>
        </mxCell>
        <mxCell id="99H91_uwepMWZIBe1bUp-35" value="" style="edgeStyle=orthogonalEdgeStyle;rounded=0;orthogonalLoop=1;jettySize=auto;html=1;" edge="1" parent="WIyWlLk6GJQsqaUBKTNV-1" source="99H91_uwepMWZIBe1bUp-27" target="99H91_uwepMWZIBe1bUp-34">
          <mxGeometry relative="1" as="geometry" />
        </mxCell>
        <mxCell id="99H91_uwepMWZIBe1bUp-36" value="Yes" style="edgeLabel;html=1;align=center;verticalAlign=middle;resizable=0;points=[];" vertex="1" connectable="0" parent="99H91_uwepMWZIBe1bUp-35">
          <mxGeometry x="-0.1133" y="1" relative="1" as="geometry">
            <mxPoint as="offset" />
          </mxGeometry>
        </mxCell>
        <mxCell id="99H91_uwepMWZIBe1bUp-27" value="Is message received" style="rhombus;whiteSpace=wrap;html=1;" vertex="1" parent="WIyWlLk6GJQsqaUBKTNV-1">
          <mxGeometry x="635" y="680" width="80" height="80" as="geometry" />
        </mxCell>
        <mxCell id="99H91_uwepMWZIBe1bUp-42" value="" style="edgeStyle=orthogonalEdgeStyle;rounded=0;orthogonalLoop=1;jettySize=auto;html=1;" edge="1" parent="WIyWlLk6GJQsqaUBKTNV-1" source="99H91_uwepMWZIBe1bUp-29" target="99H91_uwepMWZIBe1bUp-41">
          <mxGeometry relative="1" as="geometry" />
        </mxCell>
        <mxCell id="99H91_uwepMWZIBe1bUp-29" value="Remove client from the clients map." style="rounded=0;whiteSpace=wrap;html=1;" vertex="1" parent="WIyWlLk6GJQsqaUBKTNV-1">
          <mxGeometry x="780" y="690" width="120" height="60" as="geometry" />
        </mxCell>
        <mxCell id="99H91_uwepMWZIBe1bUp-38" value="" style="edgeStyle=orthogonalEdgeStyle;rounded=0;orthogonalLoop=1;jettySize=auto;html=1;" edge="1" parent="WIyWlLk6GJQsqaUBKTNV-1" source="99H91_uwepMWZIBe1bUp-34" target="99H91_uwepMWZIBe1bUp-37">
          <mxGeometry relative="1" as="geometry" />
        </mxCell>
        <mxCell id="99H91_uwepMWZIBe1bUp-34" value="Print the received message." style="rounded=0;whiteSpace=wrap;html=1;" vertex="1" parent="WIyWlLk6GJQsqaUBKTNV-1">
          <mxGeometry x="615" y="820" width="120" height="60" as="geometry" />
        </mxCell>
        <mxCell id="99H91_uwepMWZIBe1bUp-40" value="" style="edgeStyle=orthogonalEdgeStyle;rounded=0;orthogonalLoop=1;jettySize=auto;html=1;" edge="1" parent="WIyWlLk6GJQsqaUBKTNV-1" source="99H91_uwepMWZIBe1bUp-37" target="99H91_uwepMWZIBe1bUp-39">
          <mxGeometry relative="1" as="geometry" />
        </mxCell>
        <mxCell id="99H91_uwepMWZIBe1bUp-37" value="Send the message to all other connected clients." style="rounded=0;whiteSpace=wrap;html=1;" vertex="1" parent="WIyWlLk6GJQsqaUBKTNV-1">
          <mxGeometry x="615" y="920" width="120" height="60" as="geometry" />
        </mxCell>
        <mxCell id="99H91_uwepMWZIBe1bUp-39" value="End" style="rounded=1;whiteSpace=wrap;html=1;" vertex="1" parent="WIyWlLk6GJQsqaUBKTNV-1">
          <mxGeometry x="615" y="1030" width="120" height="60" as="geometry" />
        </mxCell>
        <mxCell id="99H91_uwepMWZIBe1bUp-41" value="Close the client connection." style="rounded=0;whiteSpace=wrap;html=1;" vertex="1" parent="WIyWlLk6GJQsqaUBKTNV-1">
          <mxGeometry x="940" y="690" width="120" height="60" as="geometry" />
        </mxCell>
      </root>
    </mxGraphModel>
  </diagram>
</mxfile>
